<?xml version="1.0" encoding="utf-8"?>
<!-- Generator: Adobe Illustrator 24.1.0, SVG Export Plug-In . SVG Version: 6.00 Build 0)  -->
<svg version="1.1" id="Laag_2" xmlns="http://www.w3.org/2000/svg" xmlns:xlink="http://www.w3.org/1999/xlink" x="0px" y="0px"
	 viewBox="0 0 183.5 43.7" style="enable-background:new 0 0 183.5 43.7;" xml:space="preserve">
<style type="text/css">
	.st0{fill:#FFFFFF;}
</style>
<g>
	<path class="st0" d="M19.1,6.6c-2.1-1.3-4.4-2.2-6.7-2.4v21.4H8.2V4.2C5.8,4.5,3.6,5.3,1.5,6.6L0,3c1.5-1,3.1-1.8,4.9-2.3
		C6.6,0.3,8.4,0,10.2,0s3.6,0.3,5.4,0.8C17.4,1.3,19,2,20.5,3L19.1,6.6z"/>
	<path class="st0" d="M38.7,25.6l-4.6-7.4c-0.2,0-0.5,0-0.9,0h-5.1v7.3h-4.2V0.4h9.3c2,0,3.7,0.4,5.1,1.1c1.5,0.7,2.6,1.8,3.4,3.1
		c0.8,1.3,1.2,2.9,1.2,4.8c0,1.9-0.4,3.5-1.2,4.9c-0.8,1.4-2,2.4-3.6,3.1l5.2,8.3H38.7z M37.2,5.6c-1-0.9-2.3-1.3-4.2-1.3h-4.9v10
		H33c1.8,0,3.2-0.4,4.2-1.3c1-0.9,1.4-2.1,1.4-3.7S38.1,6.5,37.2,5.6z"/>
	<path class="st0" d="M63.3,1.3c1.5,0.9,2.7,2.2,3.5,3.9c0.8,1.7,1.2,3.8,1.2,6.3v14h-4.2v-6.5H52.1v6.5H48v-14
		c0-2.5,0.4-4.6,1.2-6.3c0.8-1.7,2-3.1,3.5-3.9C54.2,0.4,56,0,58,0C60.1,0,61.8,0.4,63.3,1.3z M63.9,15.2v-4c0-2.3-0.5-4.1-1.6-5.3
		S59.9,4.1,58,4.1c-1.9,0-3.3,0.6-4.3,1.8c-1,1.2-1.6,2.9-1.6,5.3v4H63.9z"/>
	<path class="st0" d="M94.7,0.4l-9.9,25.2h-4.1L70.7,0.4h4.6l7.5,19.4l7.6-19.4H94.7z"/>
	<path class="st0" d="M101.8,24.2c-1.9-1.1-3.3-2.7-4.4-4.6c-1.1-2-1.6-4.2-1.6-6.6c0-2.4,0.5-4.7,1.6-6.6c1.1-2,2.5-3.5,4.4-4.6
		c1.9-1.1,3.9-1.7,6.3-1.7c2.3,0,4.4,0.6,6.3,1.7c1.9,1.1,3.3,2.7,4.4,4.6c1.1,2,1.6,4.2,1.6,6.7c0,2.5-0.5,4.7-1.6,6.7
		c-1.1,2-2.5,3.5-4.4,4.6c-1.9,1.1-3.9,1.7-6.3,1.7C105.7,25.9,103.6,25.4,101.8,24.2z M112.1,20.7c1.2-0.8,2.2-1.8,2.9-3.2
		c0.7-1.4,1-2.9,1-4.6c0-1.7-0.3-3.2-1-4.6c-0.7-1.4-1.6-2.4-2.9-3.2c-1.2-0.8-2.6-1.1-4.1-1.1c-1.5,0-2.9,0.4-4.1,1.1
		c-1.2,0.8-2.2,1.8-2.9,3.2c-0.7,1.4-1,2.9-1,4.6c0,1.7,0.3,3.2,1,4.6c0.7,1.4,1.6,2.4,2.9,3.2c1.2,0.8,2.6,1.1,4.1,1.1
		C109.5,21.8,110.9,21.4,112.1,20.7z"/>
	<path class="st0" d="M140.7,6.6c-2.1-1.3-4.4-2.2-6.7-2.4v21.4h-4.2V4.2c-2.3,0.3-4.6,1.1-6.7,2.4L121.7,3c1.5-1,3.1-1.8,4.9-2.3
		c1.7-0.5,3.5-0.8,5.4-0.8s3.6,0.3,5.4,0.8c1.8,0.5,3.4,1.3,4.9,2.3L140.7,6.6z"/>
	<path class="st0" d="M162.9,23.1c-1,0.9-2.3,1.6-3.9,2.1c-1.6,0.5-3.3,0.7-5.2,0.7c-2.2,0-4-0.3-5.6-0.9c-1.5-0.6-2.7-1.5-3.5-2.6
		c-0.8-1.1-1.2-2.4-1.2-3.8c0-1.4,0.3-2.6,1-3.6c0.7-1,1.6-1.8,2.8-2.3c-0.9-0.5-1.6-1.3-2.1-2.2c-0.5-0.9-0.8-2-0.8-3.2
		c0-1.3,0.4-2.6,1.1-3.7c0.7-1.1,1.8-2,3.3-2.6c1.4-0.7,3.2-1,5.3-1c1.4,0,2.8,0.2,4.2,0.5c1.4,0.3,2.5,0.8,3.6,1.4l-1.2,3.7
		c-1.9-1.1-4-1.7-6.4-1.7c-1.9,0-3.3,0.3-4.2,1c-0.9,0.7-1.4,1.5-1.4,2.6c0,1.1,0.3,1.9,1,2.5c0.7,0.6,1.7,0.8,3,0.8h6v3.9h-6.2
		c-1.5,0-2.7,0.3-3.6,0.9c-0.8,0.6-1.3,1.5-1.3,2.6c0,1.2,0.5,2.1,1.5,2.7c1,0.7,2.5,1,4.6,1c1.4,0,2.8-0.2,4.2-0.6
		c1.3-0.4,2.5-1,3.4-1.8L162.9,23.1z"/>
	<path class="st0" d="M167,0.4h4.2v21.2h11.9v4H167V0.4z"/>
</g>
<g>
	<path class="st0" d="M6.3,35.9v7.7H5.1v-3.3H1.5v3.3H0.2v-7.7h1.3V39h3.6v-3.2H6.3z"/>
	<path class="st0" d="M13.4,43.2c-0.6-0.3-1-0.8-1.3-1.4c-0.3-0.6-0.5-1.3-0.5-2s0.2-1.4,0.5-2c0.3-0.6,0.8-1.1,1.3-1.4
		c0.6-0.3,1.2-0.5,1.9-0.5c0.7,0,1.3,0.2,1.9,0.5c0.6,0.3,1,0.8,1.3,1.4c0.3,0.6,0.5,1.3,0.5,2c0,0.8-0.2,1.4-0.5,2
		c-0.3,0.6-0.8,1.1-1.3,1.4c-0.6,0.3-1.2,0.5-1.9,0.5C14.6,43.7,14,43.5,13.4,43.2z M16.6,42.1c0.4-0.2,0.7-0.6,0.9-1
		c0.2-0.4,0.3-0.9,0.3-1.4c0-0.5-0.1-1-0.3-1.4c-0.2-0.4-0.5-0.7-0.9-1c-0.4-0.2-0.8-0.3-1.2-0.3s-0.9,0.1-1.2,0.3s-0.7,0.6-0.9,1
		c-0.2,0.4-0.3,0.9-0.3,1.4c0,0.5,0.1,1,0.3,1.4c0.2,0.4,0.5,0.7,0.9,1c0.4,0.2,0.8,0.3,1.2,0.3S16.2,42.3,16.6,42.1z"/>
	<path class="st0" d="M29.1,37.8c-0.7-0.4-1.3-0.7-2-0.7v6.5h-1.3V37c-0.7,0.1-1.4,0.3-2,0.7l-0.4-1.1c0.5-0.3,1-0.5,1.5-0.7
		c0.5-0.2,1.1-0.2,1.6-0.2c0.6,0,1.1,0.1,1.6,0.2c0.5,0.2,1,0.4,1.5,0.7L29.1,37.8z"/>
	<path class="st0" d="M39.6,42.8c-0.3,0.3-0.7,0.5-1.2,0.6c-0.5,0.1-1,0.2-1.6,0.2c-0.7,0-1.2-0.1-1.7-0.3c-0.5-0.2-0.8-0.5-1.1-0.8
		c-0.2-0.3-0.4-0.7-0.4-1.2c0-0.4,0.1-0.8,0.3-1.1c0.2-0.3,0.5-0.5,0.9-0.7c-0.3-0.2-0.5-0.4-0.6-0.7C34,38.7,34,38.3,34,38
		c0-0.4,0.1-0.8,0.3-1.1c0.2-0.3,0.6-0.6,1-0.8c0.4-0.2,1-0.3,1.6-0.3c0.4,0,0.9,0.1,1.3,0.2c0.4,0.1,0.8,0.2,1.1,0.4l-0.4,1.1
		c-0.6-0.3-1.2-0.5-2-0.5c-0.6,0-1,0.1-1.3,0.3s-0.4,0.5-0.4,0.8c0,0.3,0.1,0.6,0.3,0.8c0.2,0.2,0.5,0.3,0.9,0.3h1.8v1.2h-1.9
		c-0.5,0-0.8,0.1-1.1,0.3S35,41,35,41.3s0.2,0.6,0.5,0.8c0.3,0.2,0.8,0.3,1.4,0.3c0.4,0,0.9-0.1,1.3-0.2c0.4-0.1,0.8-0.3,1-0.5
		L39.6,42.8z"/>
	<path class="st0" d="M44.5,35.9h1.3v6.5h3.6v1.2h-4.9V35.9z"/>
	<path class="st0" d="M66.2,43.7l-0.9-0.9c-0.6,0.6-1.4,0.9-2.3,0.9c-0.5,0-0.9-0.1-1.3-0.3c-0.4-0.2-0.7-0.4-0.9-0.7
		c-0.2-0.3-0.3-0.7-0.3-1.1c0-0.5,0.1-0.9,0.4-1.3c0.3-0.4,0.7-0.7,1.2-1.1c-0.3-0.3-0.5-0.6-0.6-0.9c-0.1-0.3-0.2-0.5-0.2-0.8
		c0-0.5,0.2-1,0.5-1.3c0.4-0.3,0.9-0.5,1.5-0.5c0.6,0,1,0.2,1.3,0.5c0.3,0.3,0.5,0.7,0.5,1.2c0,0.4-0.1,0.7-0.3,1.1
		c-0.2,0.3-0.6,0.6-1.1,0.9l1.5,1.6c0.2-0.4,0.3-0.8,0.4-1.3l1,0.4c-0.1,0.7-0.3,1.3-0.6,1.8l0.9,0.9L66.2,43.7z M64.6,42L62.8,40
		c-0.4,0.2-0.7,0.5-0.8,0.7c-0.2,0.2-0.2,0.5-0.2,0.8c0,0.3,0.1,0.6,0.4,0.8c0.3,0.2,0.6,0.3,1,0.3C63.7,42.5,64.2,42.4,64.6,42z
		 M62.7,37c-0.2,0.2-0.2,0.3-0.2,0.6c0,0.2,0,0.3,0.1,0.5c0.1,0.2,0.3,0.4,0.5,0.6c0.4-0.2,0.7-0.5,0.8-0.6s0.2-0.4,0.2-0.6
		c0-0.2-0.1-0.4-0.2-0.5c-0.1-0.1-0.3-0.2-0.6-0.2C63.1,36.8,62.8,36.8,62.7,37z"/>
	<path class="st0" d="M83.1,43.6l-1.4-2.3c-0.1,0-0.1,0-0.3,0h-1.6v2.2h-1.3v-7.7h2.9c0.6,0,1.1,0.1,1.6,0.3c0.4,0.2,0.8,0.5,1,0.9
		c0.2,0.4,0.4,0.9,0.4,1.5c0,0.6-0.1,1.1-0.4,1.5c-0.3,0.4-0.6,0.7-1.1,0.9l1.6,2.5H83.1z M82.6,37.5c-0.3-0.3-0.7-0.4-1.3-0.4h-1.5
		v3.1h1.5c0.6,0,1-0.1,1.3-0.4c0.3-0.3,0.4-0.6,0.4-1.1S82.9,37.7,82.6,37.5z"/>
	<path class="st0" d="M95.1,42.8c-0.3,0.3-0.7,0.5-1.2,0.6c-0.5,0.1-1,0.2-1.6,0.2c-0.7,0-1.2-0.1-1.7-0.3c-0.5-0.2-0.8-0.5-1.1-0.8
		c-0.2-0.3-0.4-0.7-0.4-1.2c0-0.4,0.1-0.8,0.3-1.1c0.2-0.3,0.5-0.5,0.9-0.7c-0.3-0.2-0.5-0.4-0.6-0.7c-0.2-0.3-0.2-0.6-0.2-1
		c0-0.4,0.1-0.8,0.3-1.1c0.2-0.3,0.6-0.6,1-0.8c0.4-0.2,1-0.3,1.6-0.3c0.4,0,0.9,0.1,1.3,0.2c0.4,0.1,0.8,0.2,1.1,0.4l-0.4,1.1
		c-0.6-0.3-1.2-0.5-2-0.5c-0.6,0-1,0.1-1.3,0.3s-0.4,0.5-0.4,0.8c0,0.3,0.1,0.6,0.3,0.8c0.2,0.2,0.5,0.3,0.9,0.3h1.8v1.2H92
		c-0.5,0-0.8,0.1-1.1,0.3s-0.4,0.4-0.4,0.8s0.2,0.6,0.5,0.8c0.3,0.2,0.8,0.3,1.4,0.3c0.4,0,0.9-0.1,1.3-0.2c0.4-0.1,0.8-0.3,1-0.5
		L95.1,42.8z"/>
	<path class="st0" d="M100.6,43.4c-0.5-0.2-0.9-0.4-1.2-0.7l0.4-1.1c0.3,0.2,0.6,0.5,1,0.6s0.8,0.2,1.2,0.2c0.5,0,0.9-0.1,1.2-0.3
		c0.3-0.2,0.4-0.4,0.4-0.7c0-0.2-0.1-0.4-0.2-0.5c-0.1-0.1-0.3-0.3-0.5-0.3s-0.5-0.2-0.9-0.3c-0.5-0.1-1-0.3-1.3-0.4
		s-0.6-0.4-0.8-0.7c-0.2-0.3-0.4-0.7-0.4-1.2c0-0.4,0.1-0.8,0.3-1.2c0.2-0.3,0.5-0.6,0.9-0.8c0.4-0.2,0.9-0.3,1.5-0.3
		c0.4,0,0.8,0.1,1.2,0.2s0.8,0.3,1.1,0.5l-0.4,1.1c-0.3-0.2-0.6-0.3-1-0.5c-0.3-0.1-0.7-0.2-1-0.2c-0.5,0-0.9,0.1-1.1,0.3
		c-0.2,0.2-0.4,0.4-0.4,0.8c0,0.2,0.1,0.4,0.2,0.5c0.1,0.1,0.3,0.2,0.5,0.3s0.5,0.2,0.9,0.3c0.5,0.1,0.9,0.3,1.3,0.4
		s0.6,0.4,0.8,0.7c0.2,0.3,0.4,0.7,0.4,1.2c0,0.4-0.1,0.8-0.3,1.2s-0.5,0.6-0.9,0.8c-0.4,0.2-0.9,0.3-1.5,0.3
		C101.7,43.7,101.1,43.6,100.6,43.4z"/>
	<path class="st0" d="M114.9,37.8c-0.7-0.4-1.3-0.7-2-0.7v6.5h-1.3V37c-0.7,0.1-1.4,0.3-2,0.7l-0.4-1.1c0.5-0.3,1-0.5,1.5-0.7
		c0.5-0.2,1.1-0.2,1.6-0.2c0.6,0,1.1,0.1,1.6,0.2c0.5,0.2,1,0.4,1.5,0.7L114.9,37.8z"/>
	<path class="st0" d="M124.7,36.2c0.5,0.3,0.8,0.7,1.1,1.2c0.3,0.5,0.4,1.2,0.4,1.9v4.3h-1.3v-2h-3.6v2h-1.3v-4.3
		c0-0.8,0.1-1.4,0.4-1.9c0.3-0.5,0.6-0.9,1.1-1.2c0.5-0.3,1-0.4,1.6-0.4C123.6,35.8,124.2,35.9,124.7,36.2z M124.8,40.4v-1.2
		c0-0.7-0.2-1.2-0.5-1.6c-0.3-0.4-0.8-0.5-1.3-0.5c-0.6,0-1,0.2-1.3,0.5c-0.3,0.4-0.5,0.9-0.5,1.6v1.2H124.8z"/>
	<path class="st0" d="M137.8,35.9v7.7h-1.2v-1c-0.5,0.7-1.2,1.1-2.2,1.1c-0.8,0-1.5-0.3-1.9-0.9c-0.5-0.6-0.7-1.4-0.7-2.4v-4.5h1.3
		v4.5c0,0.7,0.1,1.2,0.4,1.5c0.3,0.3,0.7,0.5,1.2,0.5c0.6,0,1-0.2,1.3-0.6c0.3-0.4,0.5-0.9,0.5-1.7v-4.3H137.8z"/>
	<path class="st0" d="M148.1,43.6l-1.4-2.3c-0.1,0-0.1,0-0.3,0h-1.6v2.2h-1.3v-7.7h2.9c0.6,0,1.1,0.1,1.6,0.3c0.4,0.2,0.8,0.5,1,0.9
		c0.2,0.4,0.4,0.9,0.4,1.5c0,0.6-0.1,1.1-0.4,1.5c-0.3,0.4-0.6,0.7-1.1,0.9l1.6,2.5H148.1z M147.6,37.5c-0.3-0.3-0.7-0.4-1.3-0.4
		h-1.5v3.1h1.5c0.6,0,1-0.1,1.3-0.4c0.3-0.3,0.4-0.6,0.4-1.1S147.9,37.7,147.6,37.5z"/>
	<path class="st0" d="M159.3,36.2c0.5,0.3,0.8,0.7,1.1,1.2c0.3,0.5,0.4,1.2,0.4,1.9v4.3h-1.3v-2h-3.6v2h-1.3v-4.3
		c0-0.8,0.1-1.4,0.4-1.9c0.3-0.5,0.6-0.9,1.1-1.2c0.5-0.3,1-0.4,1.6-0.4C158.3,35.8,158.9,35.9,159.3,36.2z M159.5,40.4v-1.2
		c0-0.7-0.2-1.2-0.5-1.6c-0.3-0.4-0.8-0.5-1.3-0.5c-0.6,0-1,0.2-1.3,0.5c-0.3,0.4-0.5,0.9-0.5,1.6v1.2H159.5z"/>
	<path class="st0" d="M171.9,36.6c0.5,0.6,0.7,1.4,0.7,2.4v4.5h-1.3v-4.5c0-0.7-0.1-1.2-0.4-1.5c-0.3-0.3-0.7-0.5-1.2-0.5
		c-0.6,0-1,0.2-1.4,0.6c-0.3,0.4-0.5,0.9-0.5,1.7v4.3h-1.3v-7.7h1.2v1c0.5-0.7,1.2-1.1,2.2-1.1C170.8,35.8,171.4,36,171.9,36.6z"/>
	<path class="st0" d="M183.1,37.8c-0.7-0.4-1.3-0.7-2-0.7v6.5h-1.3V37c-0.7,0.1-1.4,0.3-2,0.7l-0.4-1.1c0.5-0.3,1-0.5,1.5-0.7
		c0.5-0.2,1.1-0.2,1.6-0.2c0.6,0,1.1,0.1,1.6,0.2c0.5,0.2,1,0.4,1.5,0.7L183.1,37.8z"/>
</g>
</svg>
